<svg width="20" height="20" viewBox="0 0 20 20" fill="none" xmlns="http://www.w3.org/2000/svg">
<circle cx="10" cy="10" r="10" fill="#EFEFEF"/>
<path d="M15.9378 9.92894C15.8318 9.81034 15.7733 9.65787 15.7733 9.5C15.7733 9.34213 15.8318 9.18966 15.9378 9.07106L16.7847 8.13519C16.878 8.03293 16.936 7.90427 16.9502 7.76767C16.9645 7.63106 16.9343 7.49352 16.8641 7.37479L15.5409 5.12609C15.4713 5.0075 15.3655 4.91349 15.2383 4.85748C15.1112 4.80146 14.9693 4.78629 14.8329 4.81414L13.5891 5.0611C13.4308 5.09323 13.2661 5.06734 13.1259 4.98831C12.9857 4.90929 12.8798 4.78261 12.8282 4.63216L12.4247 3.44282C12.3803 3.31374 12.2957 3.20162 12.1829 3.12231C12.0701 3.04301 11.9348 3.00053 11.7961 3.00088H9.14966C9.00538 2.99349 8.8626 3.03268 8.74314 3.11248C8.62367 3.19228 8.53407 3.3083 8.48804 3.44282L8.11753 4.63216C8.06593 4.78261 7.96005 4.90929 7.81988 4.98831C7.67971 5.06734 7.51495 5.09323 7.35668 5.0611L6.07976 4.81414C5.95045 4.79619 5.81862 4.81623 5.70088 4.87175C5.58314 4.92726 5.48477 5.01576 5.41814 5.12609L4.09491 7.37479C4.0229 7.4922 3.99052 7.62896 4.0024 7.76553C4.01429 7.9021 4.06982 8.03149 4.16107 8.13519L5.00132 9.07106C5.10739 9.18966 5.16589 9.34213 5.16589 9.5C5.16589 9.65787 5.10739 9.81034 5.00132 9.92894L4.16107 10.8648C4.06982 10.9685 4.01429 11.0979 4.0024 11.2345C3.99052 11.371 4.0229 11.5078 4.09491 11.6252L5.41814 13.8739C5.48768 13.9925 5.59355 14.0865 5.72067 14.1425C5.84779 14.1985 5.98966 14.2137 6.12607 14.1859L7.36991 13.9389C7.52818 13.9068 7.69295 13.9327 7.83311 14.0117C7.97328 14.0907 8.07916 14.2174 8.13077 14.3678L8.53435 15.5572C8.58039 15.6917 8.66998 15.8077 8.78945 15.8875C8.90892 15.9673 9.05169 16.0065 9.19597 15.9991H11.8424C11.9811 15.9995 12.1164 15.957 12.2292 15.8777C12.342 15.7984 12.4266 15.6863 12.471 15.5572L12.8746 14.3678C12.9262 14.2174 13.032 14.0907 13.1722 14.0117C13.3124 13.9327 13.4771 13.9068 13.6354 13.9389L14.8792 14.1859C15.0157 14.2137 15.1575 14.1985 15.2847 14.1425C15.4118 14.0865 15.5176 13.9925 15.5872 13.8739L16.9104 11.6252C16.9807 11.5065 17.0108 11.3689 16.9965 11.2323C16.9823 11.0957 16.9243 10.9671 16.831 10.8648L15.9378 9.92894ZM14.952 10.7998L15.4813 11.3847L14.6345 12.8275L13.8537 12.6716C13.3772 12.5759 12.8815 12.6554 12.4608 12.895C12.04 13.1346 11.7234 13.5177 11.5712 13.9714L11.3198 14.6993H9.62602L9.38784 13.9584C9.23557 13.5047 8.919 13.1216 8.49823 12.882C8.07746 12.6424 7.58177 12.5629 7.10526 12.6586L6.32456 12.8145L5.46445 11.3782L5.99375 10.7933C6.31923 10.4359 6.49918 9.97309 6.49918 9.4935C6.49918 9.01391 6.31923 8.55114 5.99375 8.19368L5.46445 7.60876L6.31132 6.17895L7.09203 6.33493C7.56854 6.43061 8.06423 6.3511 8.485 6.11149C8.90577 5.87188 9.22234 5.48885 9.3746 5.03511L9.62602 4.30071H11.3198L11.5712 5.04161C11.7234 5.49535 12.04 5.87838 12.4608 6.11799C12.8815 6.3576 13.3772 6.43711 13.8537 6.34143L14.6345 6.18545L15.4813 7.62825L14.952 8.21318C14.6302 8.56982 14.4525 9.02991 14.4525 9.5065C14.4525 9.98309 14.6302 10.4432 14.952 10.7998ZM10.4729 6.90035C9.94947 6.90035 9.4378 7.05282 9.00259 7.33847C8.56738 7.62413 8.22818 8.03014 8.02787 8.50516C7.82757 8.98018 7.77516 9.50288 7.87727 10.0072C7.97939 10.5114 8.23144 10.9747 8.60155 11.3382C8.97167 11.7018 9.44322 11.9494 9.95659 12.0497C10.47 12.15 11.0021 12.0985 11.4856 11.9018C11.9692 11.705 12.3825 11.3718 12.6733 10.9443C12.9641 10.5168 13.1194 10.0142 13.1194 9.5C13.1194 8.81053 12.8405 8.1493 12.3442 7.66177C11.8479 7.17424 11.1748 6.90035 10.4729 6.90035ZM10.4729 10.7998C10.2112 10.7998 9.95534 10.7236 9.73774 10.5808C9.52013 10.4379 9.35053 10.2349 9.25038 9.99742C9.15023 9.75991 9.12402 9.49856 9.17508 9.24642C9.22614 8.99428 9.35216 8.76267 9.53722 8.58089C9.72228 8.3991 9.95806 8.27531 10.2147 8.22515C10.4714 8.175 10.7375 8.20074 10.9793 8.29912C11.2211 8.3975 11.4277 8.5641 11.5731 8.77786C11.7185 8.99161 11.7961 9.24292 11.7961 9.5C11.7961 9.84473 11.6567 10.1753 11.4086 10.4191C11.1604 10.6629 10.8238 10.7998 10.4729 10.7998Z" fill="#3F3F3F" stroke="white" stroke-width="0.3"/>
</svg>
