<svg width="24" height="24" viewBox="0 0 24 24" fill="none" xmlns="http://www.w3.org/2000/svg">
<path d="M15 19.9222L9 17.8222L5.042 19.3522C4.786 19.4475 4.54833 19.4198 4.329 19.2692C4.10967 19.1185 4 18.9065 4 18.6332V6.40317C4 6.2245 4.04333 6.06151 4.13 5.91417C4.21667 5.76684 4.34267 5.6645 4.508 5.60717L9 4.07617L15 6.17617L18.958 4.64617C19.214 4.55084 19.4517 4.56884 19.671 4.70017C19.8903 4.83151 20 5.02751 20 5.28817V17.6722C20 17.8635 19.947 18.0295 19.841 18.1702C19.7357 18.3115 19.5937 18.4108 19.415 18.4682L15 19.9222ZM14.5 18.7022V7.00217L9.5 5.25717V16.9572L14.5 18.7022ZM15.5 18.7022L19 17.5492V5.69917L15.5 7.00317V18.7022ZM5 18.2992L8.5 16.9572V5.25717L5 6.44917V18.2992Z" fill="white"/>
</svg>
