<svg width="20" height="20" viewBox="0 0 20 20" fill="none" xmlns="http://www.w3.org/2000/svg">
<circle cx="10" cy="10" r="10" fill="#EFEFEF"/>
<path d="M14.887 8.72512L14.887 8.72515C14.9301 8.7984 14.9517 8.88103 14.9499 8.96457C14.9481 9.04812 14.9229 9.12987 14.8767 9.20142L10.5004 15.9737L10.5424 16.0008L10.5004 15.9737C10.4412 16.0654 10.3504 16.1356 10.2427 16.1722C10.1351 16.2088 10.0174 16.2093 9.90933 16.1736C9.80132 16.138 9.70987 16.0686 9.64974 15.9774C9.58965 15.8862 9.56426 15.7786 9.57741 15.6723L9.52778 15.6662L9.57741 15.6723L10.0835 11.5748L10.0904 11.5187H10.0339H6.79986C6.71047 11.5187 6.62282 11.496 6.546 11.4532C6.46919 11.4103 6.40611 11.349 6.36301 11.2757C6.31993 11.2024 6.29828 11.1197 6.30011 11.0361C6.30193 10.9526 6.32716 10.8708 6.37343 10.7992L10.7536 4.02616L10.7536 4.02616C10.8132 3.93401 10.9046 3.86358 11.0129 3.82721C11.1213 3.79084 11.2396 3.79093 11.3479 3.82747C11.4562 3.864 11.5475 3.93456 11.6069 4.0268C11.6663 4.11898 11.6904 4.22741 11.6757 4.33408L11.6757 4.3341L11.1126 8.42505L11.1047 8.48187H11.1621H14.4501C14.5395 8.48189 14.6272 8.5046 14.704 8.54749C14.7808 8.59037 14.8439 8.65178 14.887 8.72512ZM10.8613 13.4272L10.9529 13.4605L13.509 9.50461L13.5588 9.42748H13.467H10.5356C10.4641 9.42747 10.3935 9.41296 10.3286 9.38499C10.2636 9.35701 10.2059 9.31627 10.1591 9.26561C10.1124 9.21497 10.0777 9.15558 10.0572 9.0915C10.0367 9.02742 10.0308 8.95998 10.04 8.89366L10.3506 6.63704L10.259 6.60307L7.74151 10.4959L7.69161 10.5731H7.78349H10.6521C10.7231 10.5731 10.7932 10.5874 10.8577 10.6149C10.9223 10.6425 10.9798 10.6827 11.0266 10.7327C11.0733 10.7827 11.1082 10.8414 11.1292 10.9048C11.1502 10.9682 11.1568 11.0351 11.1486 11.101L11.1486 11.1011L10.8613 13.4272Z" fill="#3F3F3F" stroke="white" stroke-width="0.1"/>
</svg>
