<svg width="17" height="16" viewBox="0 0 17 16" fill="none" xmlns="http://www.w3.org/2000/svg">
<path d="M8.5 14C9.68669 14 10.8467 13.6481 11.8334 12.9888C12.8201 12.3295 13.5892 11.3925 14.0433 10.2961C14.4974 9.19975 14.6162 7.99335 14.3847 6.82946C14.1532 5.66558 13.5818 4.59648 12.7426 3.75736C11.9035 2.91825 10.8344 2.3468 9.67054 2.11529C8.50666 1.88378 7.30026 2.0026 6.2039 2.45673C5.10754 2.91085 4.17047 3.67989 3.51118 4.66658C2.85189 5.65328 2.5 6.81331 2.5 8C2.5 8.992 2.74 9.92667 3.16667 10.7513L2.5 14L5.74867 13.3333C6.57267 13.7593 7.50867 14 8.5 14Z" stroke="black" stroke-linecap="round" stroke-linejoin="round"/>
</svg>
