<svg width="18" height="26" viewBox="0 0 18 26" fill="none" xmlns="http://www.w3.org/2000/svg">
<path fill-rule="evenodd" clip-rule="evenodd" d="M14.7725 8.32466C14.8446 8.25269 14.9018 8.16724 14.9408 8.07318C14.9798 7.97911 14.9999 7.87828 15 7.77644C15.0001 7.67461 14.9801 7.57375 14.9412 7.47964C14.9022 7.38553 14.8452 7.3 14.7732 7.22795C14.7012 7.15589 14.6158 7.09872 14.5217 7.05969C14.4277 7.02066 14.3268 7.00054 14.225 7.00048C14.1232 7.00041 14.0223 7.02041 13.9282 7.05932C13.8341 7.09824 13.7486 7.15531 13.6765 7.22728L8.9999 11.904L4.32464 7.22728C4.17912 7.08175 3.98175 7 3.77595 7C3.57016 7 3.37279 7.08175 3.22727 7.22728C3.08175 7.3728 3 7.57017 3 7.77597C3 7.98177 3.08175 8.17914 3.22727 8.32466L7.90388 13L3.22727 17.6753C3.15522 17.7474 3.09806 17.8329 3.05907 17.9271C3.02007 18.0212 3 18.1221 3 18.224C3 18.3259 3.02007 18.4268 3.05907 18.521C3.09806 18.6151 3.15522 18.7007 3.22727 18.7727C3.37279 18.9182 3.57016 19 3.77595 19C3.87785 19 3.97876 18.9799 4.0729 18.9409C4.16704 18.9019 4.25258 18.8448 4.32464 18.7727L8.9999 14.096L13.6765 18.7727C13.822 18.9181 14.0193 18.9996 14.225 18.9995C14.4307 18.9994 14.6279 18.9176 14.7732 18.772C14.9185 18.6265 15.0001 18.4292 15 18.2236C14.9999 18.0179 14.918 17.8207 14.7725 17.6753L10.0959 13L14.7725 8.32466Z" fill="#3F3F3F"/>
</svg>
