<svg width="17" height="16" viewBox="0 0 17 16" fill="none" xmlns="http://www.w3.org/2000/svg">
<g clip-path="url(#clip0_583_437)">
<path d="M14.8332 2.66602H13.3888V3.5549H14.7221V13.3327H2.27767V3.5549H3.61101V2.66602H2.16656C2.06267 2.66775 1.96013 2.68994 1.86482 2.73131C1.7695 2.77268 1.68326 2.83242 1.61104 2.90712C1.53881 2.98183 1.48201 3.07002 1.44387 3.16668C1.40574 3.26334 1.38702 3.36657 1.38879 3.47046V13.4171C1.38702 13.521 1.40574 13.6242 1.44387 13.7209C1.48201 13.8176 1.53881 13.9058 1.61104 13.9805C1.68326 14.0552 1.7695 14.1149 1.86482 14.1563C1.96013 14.1976 2.06267 14.2198 2.16656 14.2216H14.8332C14.9371 14.2198 15.0397 14.1976 15.135 14.1563C15.2303 14.1149 15.3165 14.0552 15.3888 13.9805C15.461 13.9058 15.5178 13.8176 15.5559 13.7209C15.5941 13.6242 15.6128 13.521 15.611 13.4171V3.47046C15.6128 3.36657 15.5941 3.26334 15.5559 3.16668C15.5178 3.07002 15.461 2.98183 15.3888 2.90712C15.3165 2.83242 15.2303 2.77268 15.135 2.73131C15.0397 2.68994 14.9371 2.66775 14.8332 2.66602Z" fill="#FFBA00"/>
<path d="M4.05469 6.22266H4.94358V7.11155H4.05469V6.22266Z" fill="#FFBA00"/>
<path d="M6.72266 6.22266H7.61155V7.11155H6.72266V6.22266Z" fill="#FFBA00"/>
<path d="M9.38867 6.22266H10.2776V7.11155H9.38867V6.22266Z" fill="#FFBA00"/>
<path d="M12.0547 6.22266H12.9436V7.11155H12.0547V6.22266Z" fill="#FFBA00"/>
<path d="M4.05469 8.44531H4.94358V9.3342H4.05469V8.44531Z" fill="#FFBA00"/>
<path d="M6.72266 8.44531H7.61155V9.3342H6.72266V8.44531Z" fill="#FFBA00"/>
<path d="M9.38867 8.44531H10.2776V9.3342H9.38867V8.44531Z" fill="#FFBA00"/>
<path d="M12.0547 8.44531H12.9436V9.3342H12.0547V8.44531Z" fill="#FFBA00"/>
<path d="M4.05469 10.666H4.94358V11.5549H4.05469V10.666Z" fill="#FFBA00"/>
<path d="M6.72266 10.666H7.61155V11.5549H6.72266V10.666Z" fill="#FFBA00"/>
<path d="M9.38867 10.666H10.2776V11.5549H9.38867V10.666Z" fill="#FFBA00"/>
<path d="M12.0547 10.666H12.9436V11.5549H12.0547V10.666Z" fill="#FFBA00"/>
<path d="M4.94444 4.44423C5.06232 4.44423 5.17536 4.3974 5.25871 4.31405C5.34206 4.2307 5.38889 4.11766 5.38889 3.99978V1.33312C5.38889 1.21524 5.34206 1.1022 5.25871 1.01885C5.17536 0.935497 5.06232 0.888672 4.94444 0.888672C4.82657 0.888672 4.71352 0.935497 4.63017 1.01885C4.54683 1.1022 4.5 1.21524 4.5 1.33312V3.99978C4.5 4.11766 4.54683 4.2307 4.63017 4.31405C4.71352 4.3974 4.82657 4.44423 4.94444 4.44423Z" fill="#FFBA00"/>
<path d="M12.0558 4.44423C12.1736 4.44423 12.2867 4.3974 12.37 4.31405C12.4534 4.2307 12.5002 4.11766 12.5002 3.99978V1.33312C12.5002 1.21524 12.4534 1.1022 12.37 1.01885C12.2867 0.935497 12.1736 0.888672 12.0558 0.888672C11.9379 0.888672 11.8249 0.935497 11.7415 1.01885C11.6582 1.1022 11.6113 1.21524 11.6113 1.33312V3.99978C11.6113 4.11766 11.6582 4.2307 11.7415 4.31405C11.8249 4.3974 11.9379 4.44423 12.0558 4.44423Z" fill="#FFBA00"/>
<path d="M6.27734 2.66602H10.7218V3.5549H6.27734V2.66602Z" fill="#FFBA00"/>
</g>
<defs>
<clipPath id="clip0_583_437">
<rect width="16" height="16" fill="white" transform="translate(0.5)"/>
</clipPath>
</defs>
</svg>
