<svg width="15" height="14" viewBox="0 0 15 14" fill="none" xmlns="http://www.w3.org/2000/svg">
<g clip-path="url(#clip0_529_407)">
<path d="M7.5 14C11.3598 14 14.5 10.8598 14.5 7C14.5 5.40217 13.9475 3.83947 12.9444 2.59973C12.8471 2.47953 12.6707 2.46094 12.5506 2.55823C12.4304 2.65549 12.4118 2.8318 12.5091 2.95203C13.4318 4.09237 13.94 5.53 13.94 7C13.94 10.551 11.051 13.44 7.5 13.44C3.94898 13.44 1.06 10.551 1.06 7C1.06 3.44898 3.94898 0.56 7.5 0.56C8.97 0.56 10.4075 1.06818 11.5479 1.99093C11.6681 2.08813 11.8444 2.06959 11.9417 1.94936C12.039 1.82916 12.0204 1.65287 11.9001 1.55556C10.6604 0.552453 9.0978 0 7.5 0C3.64018 0 0.5 3.14018 0.5 7C0.5 10.8598 3.64018 14 7.5 14Z" fill="#FFBA00"/>
<path d="M4.65027 10.9389C4.5669 11.0691 4.60488 11.2423 4.73509 11.3257C5.55991 11.8537 6.5158 12.1328 7.49949 12.1328C10.33 12.1328 12.6328 9.83003 12.6328 6.99949C12.6328 4.16895 10.33 1.86616 7.49949 1.86616C4.66895 1.86616 2.36616 4.16895 2.36616 6.99949C2.36616 8.19632 2.78696 9.36139 3.55105 10.2801C3.64995 10.399 3.82648 10.4152 3.94537 10.3163C4.06429 10.2174 4.08048 10.0409 3.98158 9.92193C3.30099 9.10362 2.92616 8.06576 2.92616 6.99949C2.92616 4.47774 4.97774 2.42616 7.49949 2.42616C10.0212 2.42616 12.0728 4.47774 12.0728 6.99949C12.0728 9.52124 10.0212 11.5728 7.49949 11.5728C6.62301 11.5728 5.77155 11.3243 5.03705 10.854C4.90686 10.7706 4.7337 10.8086 4.65027 10.9389Z" fill="#FFBA00"/>
<path d="M6.66039 8.1209C6.66039 7.96627 6.53502 7.8409 6.38039 7.8409C6.22576 7.8409 6.10039 7.96627 6.10039 8.1209C6.10039 8.797 6.58213 9.36264 7.22039 9.49271V9.98758C7.22039 10.1422 7.34576 10.2676 7.50039 10.2676C7.65502 10.2676 7.78039 10.1422 7.78039 9.98758V9.49271C8.41865 9.36264 8.90039 8.797 8.90039 8.1209C8.90039 7.4448 8.41865 6.87917 7.78039 6.74909V5.08905C8.10627 5.20464 8.34039 5.51586 8.34039 5.8809C8.34039 6.03553 8.46576 6.1609 8.62039 6.1609C8.77502 6.1609 8.90039 6.03553 8.90039 5.8809C8.90039 5.2048 8.41865 4.63917 7.78039 4.50909V4.01423C7.78039 3.8596 7.65502 3.73423 7.50039 3.73423C7.34576 3.73423 7.22039 3.8596 7.22039 4.01423V4.50909C6.58213 4.63917 6.10039 5.2048 6.10039 5.8809C6.10039 6.557 6.58213 7.12264 7.22039 7.25271V8.91275C6.89451 8.79717 6.66039 8.48594 6.66039 8.1209ZM7.78039 7.32906C8.10627 7.44464 8.34039 7.75586 8.34039 8.1209C8.34039 8.48594 8.10627 8.79717 7.78039 8.91275V7.32906ZM6.66039 5.8809C6.66039 5.51586 6.89451 5.20464 7.22039 5.08905V6.67272C6.89451 6.55717 6.66039 6.24594 6.66039 5.8809Z" fill="#FFBA00"/>
</g>
<defs>
<clipPath id="clip0_529_407">
<rect width="14" height="14" fill="white" transform="matrix(-1 0 0 -1 14.5 14)"/>
</clipPath>
</defs>
</svg>
