<svg width="38" height="38" viewBox="0 0 38 38" fill="none" xmlns="http://www.w3.org/2000/svg">
<path d="M7.91602 19.0007V6.33398M30.0827 31.6673V26.9173M7.91602 31.6673V25.334M30.0827 20.584V6.33398M18.9993 11.084V6.33398M18.9993 31.6673V17.4173" stroke="black" stroke-width="1.3" stroke-linecap="round"/>
<path d="M7.91667 25.3333C9.66557 25.3333 11.0833 23.9156 11.0833 22.1667C11.0833 20.4178 9.66557 19 7.91667 19C6.16776 19 4.75 20.4178 4.75 22.1667C4.75 23.9156 6.16776 25.3333 7.91667 25.3333Z" stroke="black" stroke-width="1.3" stroke-linecap="round"/>
<path d="M19.0007 17.4173C20.7496 17.4173 22.1673 15.9996 22.1673 14.2507C22.1673 12.5017 20.7496 11.084 19.0007 11.084C17.2517 11.084 15.834 12.5017 15.834 14.2507C15.834 15.9996 17.2517 17.4173 19.0007 17.4173Z" stroke="black" stroke-width="1.3" stroke-linecap="round"/>
<path d="M30.0827 26.9173C31.8316 26.9173 33.2493 25.4996 33.2493 23.7507C33.2493 22.0017 31.8316 20.584 30.0827 20.584C28.3338 20.584 26.916 22.0017 26.916 23.7507C26.916 25.4996 28.3338 26.9173 30.0827 26.9173Z" stroke="black" stroke-width="1.3" stroke-linecap="round"/>
</svg>
