<svg width="24" height="24" viewBox="0 0 24 24" fill="none" xmlns="http://www.w3.org/2000/svg">
<path d="M12.3536 19.0036L12.4448 18.9123C14.812 16.7689 16.8113 14.9576 18.2149 13.3176C19.6154 11.6811 20.5 10.1296 20.5 8.5C20.5 6.22386 18.7761 4.5 16.5 4.5C14.8859 4.5 13.3081 5.46637 12.6061 6.86H11.3939C10.6919 5.46637 9.1141 4.5 7.5 4.5C5.22386 4.5 3.5 6.22386 3.5 8.5C3.5 10.1295 4.38457 11.6811 5.78373 13.3174C7.1839 14.955 9.17694 16.7634 11.5346 18.9027L11.5537 18.92L11.554 18.9203L11.6637 19.02L12.0164 19.3407L12.3536 19.0036ZM11.6206 5.40564L12 5.84771L12.3794 5.40564C13.3779 4.24223 14.9112 3.5 16.5 3.5C19.3045 3.5 21.5 5.68674 21.5 8.5C21.5 10.2206 20.7285 11.8256 19.2691 13.6111C17.8042 15.4033 15.699 17.3157 13.1141 19.6596L13.1134 19.6603L12 20.6738L10.8866 19.6603L10.8859 19.6596C8.30104 17.3157 6.19578 15.4033 4.73088 13.6111C3.27148 11.8256 2.5 10.2206 2.5 8.5C2.5 5.68674 4.69555 3.5 7.5 3.5C9.08885 3.5 10.6221 4.24223 11.6206 5.40564Z" stroke="white"/>
</svg>
