<svg width="20" height="20" viewBox="0 0 20 20" fill="none" xmlns="http://www.w3.org/2000/svg">
<circle cx="10" cy="10" r="10" fill="#EFEFEF"/>
<path fill-rule="evenodd" clip-rule="evenodd" d="M10.0465 3.45349C10.0465 3.33322 10.0943 3.21787 10.1793 3.13282C10.2644 3.04778 10.3797 3 10.5 3C14.0898 3 17 5.91019 17 9.5C17 13.0898 14.0898 16 10.5 16C6.91019 16 4 13.0898 4 9.5C4 9.37973 4.04778 9.26438 4.13282 9.17934C4.21787 9.09429 4.33322 9.04651 4.45349 9.04651C4.57376 9.04651 4.68911 9.09429 4.77415 9.17934C4.8592 9.26438 4.90698 9.37973 4.90698 9.5C4.90698 10.6062 5.235 11.6875 5.84957 12.6073C6.46414 13.5271 7.33765 14.244 8.35964 14.6673C9.38163 15.0906 10.5062 15.2014 11.5911 14.9856C12.6761 14.7697 13.6727 14.2371 14.4549 13.4549C15.2371 12.6727 15.7697 11.6761 15.9856 10.5911C16.2014 9.5062 16.0906 8.38163 15.6673 7.35964C15.244 6.33765 14.5271 5.46414 13.6073 4.84957C12.6875 4.235 11.6062 3.90698 10.5 3.90698C10.3797 3.90698 10.2644 3.8592 10.1793 3.77415C10.0943 3.68911 10.0465 3.57376 10.0465 3.45349ZM10.5 7.23256C10.6203 7.23256 10.7356 7.28034 10.8207 7.36538C10.9057 7.45043 10.9535 7.56577 10.9535 7.68605V9.65116H12.9186C13.0389 9.65116 13.1542 9.69894 13.2393 9.78399C13.3243 9.86903 13.3721 9.98438 13.3721 10.1047C13.3721 10.2249 13.3243 10.3403 13.2393 10.4253C13.1542 10.5104 13.0389 10.5581 12.9186 10.5581H10.5C10.3797 10.5581 10.2644 10.5104 10.1793 10.4253C10.0943 10.3403 10.0465 10.2249 10.0465 10.1047V7.68605C10.0465 7.56577 10.0943 7.45043 10.1793 7.36538C10.2644 7.28034 10.3797 7.23256 10.5 7.23256ZM8.74651 3.69414C8.76797 3.74972 8.77827 3.80899 8.77682 3.86855C8.77536 3.92811 8.76219 3.9868 8.73804 4.04127C8.7139 4.09574 8.67926 4.14491 8.6361 4.18599C8.59294 4.22706 8.54211 4.25923 8.48651 4.28065C8.40101 4.31342 8.31633 4.3483 8.23256 4.38526C8.17777 4.41218 8.11811 4.42777 8.05716 4.43108C7.9962 4.43439 7.93521 4.42536 7.87783 4.40454C7.82044 4.38371 7.76786 4.35151 7.72322 4.30987C7.67858 4.26823 7.64281 4.21801 7.61804 4.16221C7.59328 4.10642 7.58004 4.04619 7.57911 3.98516C7.57818 3.92412 7.58959 3.86352 7.61264 3.807C7.63569 3.75047 7.66992 3.69919 7.71327 3.65621C7.75663 3.61323 7.80821 3.57945 7.86493 3.55688C7.96167 3.51335 8.06023 3.47223 8.16 3.43414C8.21558 3.41268 8.27485 3.40238 8.33441 3.40383C8.39397 3.40529 8.45266 3.41846 8.50713 3.44261C8.5616 3.46675 8.61077 3.5014 8.65185 3.54455C8.69292 3.58771 8.72509 3.63854 8.74651 3.69414ZM6.65926 4.80791C6.74213 4.895 6.78702 5.01144 6.78408 5.13163C6.78113 5.25181 6.73058 5.36591 6.64353 5.44884C6.57726 5.51215 6.51254 5.57707 6.44944 5.64353C6.36645 5.73069 6.25224 5.78131 6.13193 5.78426C6.01162 5.78721 5.89506 5.74224 5.80791 5.65926C5.72075 5.57627 5.67013 5.46206 5.66718 5.34174C5.66423 5.22143 5.7092 5.10488 5.79219 5.01772C5.86595 4.94093 5.94093 4.86595 6.01772 4.79219C6.10482 4.70931 6.22125 4.66442 6.34144 4.66737C6.46163 4.67031 6.57633 4.72086 6.65926 4.80791ZM5.15488 6.63456C5.20932 6.65873 5.25846 6.69339 5.2995 6.73656C5.34054 6.77972 5.37267 6.83055 5.39407 6.88614C5.41546 6.94173 5.42569 7.00099 5.42418 7.06053C5.42267 7.12007 5.40944 7.17873 5.38526 7.23316C5.34837 7.3166 5.3127 7.40126 5.28005 7.48651C5.23485 7.59601 5.1486 7.68348 5.03975 7.73021C4.93089 7.77693 4.80808 7.77921 4.69756 7.73656C4.58705 7.6939 4.49762 7.60969 4.44839 7.50195C4.39916 7.3942 4.39405 7.27147 4.43414 7.16C4.47223 7.06023 4.51274 6.96228 4.55628 6.86493C4.58045 6.81049 4.61511 6.76135 4.65828 6.72031C4.70145 6.67928 4.75227 6.64714 4.80786 6.62575C4.86345 6.60436 4.92271 6.59412 4.98225 6.59563C5.04179 6.59715 5.10045 6.61037 5.15488 6.63456Z" fill="#3F3F3F"/>
</svg>
