<svg width="13" height="14" viewBox="0 0 13 14" fill="none" xmlns="http://www.w3.org/2000/svg">
<path fill-rule="evenodd" clip-rule="evenodd" d="M6.49944 11.9764L6.89006 11.5363C7.3333 11.0286 7.73197 10.547 8.08668 10.0889L8.37949 9.70264C9.60211 8.05535 10.2137 6.74792 10.2137 5.78159C10.2137 3.71892 8.55097 2.04688 6.49944 2.04688C4.44792 2.04688 2.78516 3.71892 2.78516 5.78159C2.78516 6.74792 3.39678 8.05535 4.61939 9.70264L4.9122 10.0889C5.41824 10.7373 5.94767 11.3665 6.49944 11.9764Z" stroke="#191845" stroke-linecap="round" stroke-linejoin="round"/>
<path d="M6.49879 7.30813C7.35352 7.30813 8.04641 6.61524 8.04641 5.76051C8.04641 4.90578 7.35352 4.21289 6.49879 4.21289C5.64406 4.21289 4.95117 4.90578 4.95117 5.76051C4.95117 6.61524 5.64406 7.30813 6.49879 7.30813Z" stroke="#191845" stroke-linecap="round" stroke-linejoin="round"/>
</svg>
