<svg width="17" height="16" viewBox="0 0 17 16" fill="none" xmlns="http://www.w3.org/2000/svg">
<path d="M11.6251 2.575H11.625C10.3237 2.575 9.18615 3.1504 8.5 4.12087C7.81385 3.1504 6.67631 2.575 5.375 2.575L5.37494 2.575C4.36749 2.57617 3.40165 2.9769 2.68927 3.68927C1.9769 4.40165 1.57617 5.36749 1.575 6.37494V6.375C1.575 8.2216 2.72562 10.1336 4.97374 12.0574L4.97382 12.0574C6.00444 12.9356 7.1177 13.7119 8.29799 14.3755L8.29883 14.3759C8.36068 14.4092 8.42979 14.4265 8.5 14.4265C8.57021 14.4265 8.63932 14.4092 8.70117 14.3759L8.70117 14.3759L8.702 14.3755C9.8823 13.7119 10.9956 12.9356 12.0262 12.0574L12.0263 12.0574C14.2744 10.1336 15.425 8.2216 15.425 6.375V6.37494C15.4238 5.36749 15.0231 4.40165 14.3107 3.68927C13.5984 2.9769 12.6325 2.57617 11.6251 2.575ZM8.10685 5.16082L8.10687 5.16087C8.13889 5.23882 8.19337 5.30549 8.26336 5.35241C8.33336 5.39934 8.41573 5.42439 8.5 5.42439C8.58427 5.42439 8.66664 5.39934 8.73664 5.35241C8.80663 5.30549 8.86111 5.23882 8.89313 5.16087L8.89315 5.16082C9.33097 4.0914 10.3758 3.425 11.625 3.425C12.4071 3.42583 13.157 3.7369 13.7101 4.28995C14.2631 4.84301 14.5742 5.5929 14.575 6.37505C14.575 8.09354 13.315 9.73129 11.9133 11.0194C10.5363 12.2847 9.03474 13.2016 8.5 13.5116C7.96526 13.2016 6.46375 12.2847 5.08672 11.0194C3.685 9.73128 2.425 8.09351 2.425 6.375C2.42583 5.59287 2.7369 4.843 3.28995 4.28995C3.843 3.7369 4.59287 3.42583 5.375 3.425C6.62422 3.425 7.66903 4.0914 8.10685 5.16082Z" fill="black" stroke="black" stroke-width="0.1"/>
</svg>
