<svg width="18" height="19" viewBox="0 0 18 19" fill="none" xmlns="http://www.w3.org/2000/svg">
<path d="M16.1477 11.3523L14.625 9.82963V7.8125C14.6233 6.41853 14.1047 5.07473 13.1696 4.04093C12.2345 3.00713 10.9493 2.35677 9.5625 2.21562V1.0625H8.4375V2.21562C7.0507 2.35677 5.76549 3.00713 4.83039 4.04093C3.8953 5.07473 3.37674 6.41853 3.375 7.8125V9.82963L1.85231 11.3523C1.74682 11.4578 1.68753 11.6008 1.6875 11.75V13.4375C1.6875 13.5867 1.74676 13.7298 1.85225 13.8352C1.95774 13.9407 2.10082 14 2.25 14H6.1875V14.4371C6.17526 15.1507 6.42679 15.8437 6.89388 16.3833C7.36097 16.923 8.01076 17.2713 8.71875 17.3615C9.10979 17.4003 9.50461 17.3568 9.87783 17.2338C10.251 17.1108 10.5944 16.9111 10.8858 16.6475C11.1772 16.3838 11.4102 16.0621 11.5698 15.7031C11.7294 15.344 11.8121 14.9555 11.8125 14.5625V14H15.75C15.8992 14 16.0423 13.9407 16.1477 13.8352C16.2532 13.7298 16.3125 13.5867 16.3125 13.4375V11.75C16.3125 11.6008 16.2532 11.4578 16.1477 11.3523ZM10.6875 14.5625C10.6875 15.0101 10.5097 15.4393 10.1932 15.7557C9.87678 16.0722 9.44755 16.25 9 16.25C8.55245 16.25 8.12322 16.0722 7.80676 15.7557C7.49029 15.4393 7.3125 15.0101 7.3125 14.5625V14H10.6875V14.5625ZM15.1875 12.875H2.8125V11.9829L4.33519 10.4602C4.44068 10.3547 4.49997 10.2117 4.5 10.0625V7.8125C4.5 6.61903 4.97411 5.47443 5.81802 4.63052C6.66193 3.78661 7.80653 3.3125 9 3.3125C10.1935 3.3125 11.3381 3.78661 12.182 4.63052C13.0259 5.47443 13.5 6.61903 13.5 7.8125V10.0625C13.5 10.2117 13.5593 10.3547 13.6648 10.4602L15.1875 11.9829V12.875Z" fill="white"/>
</svg>
