<svg width="17" height="16" viewBox="0 0 17 16" fill="none" xmlns="http://www.w3.org/2000/svg">
<g clip-path="url(#clip0_529_402)">
<mask id="path-1-outside-1_529_402" maskUnits="userSpaceOnUse" x="-0.03125" y="0.0605469" width="17" height="15" fill="black">
<rect fill="white" x="-0.03125" y="0.0605469" width="17" height="15"/>
<path d="M12.9928 5.45492C13.0716 5.52211 13.0806 5.64055 13.0134 5.7193C12.9462 5.79805 12.8278 5.80742 12.7491 5.73992C12.7016 5.6993 12.6431 5.70086 12.6125 5.70523C12.5503 5.7143 12.4913 5.74836 12.4459 5.80117C12.4006 5.85398 12.3763 5.91773 12.3769 5.98055C12.3772 6.01148 12.385 6.06961 12.4325 6.10992C12.4753 6.1468 12.5566 6.11711 12.7338 6.0318C12.755 6.02148 12.7766 6.01117 12.7984 6.00086C12.8191 5.99117 12.8397 5.98148 12.8597 5.97148C13.0588 5.87555 13.3316 5.7443 13.5672 5.94617C13.6856 6.04742 13.7519 6.19305 13.7541 6.35586C13.7553 6.44773 13.735 6.53898 13.6966 6.62367L13.8675 6.76992C13.9462 6.83711 13.9553 6.95555 13.8881 7.0343C13.8705 7.05491 13.8487 7.07145 13.8241 7.08278C13.7995 7.09411 13.7727 7.09996 13.7456 7.09992C13.7025 7.09992 13.6591 7.08523 13.6237 7.05492L13.4528 6.90867C13.3484 6.97711 13.2294 7.01242 13.1125 7.01242C12.9862 7.01242 12.8625 6.97117 12.7631 6.88617C12.6844 6.81898 12.6753 6.70055 12.7425 6.6218C12.8097 6.54305 12.9281 6.53367 13.0069 6.60117C13.0853 6.66836 13.2241 6.64023 13.31 6.53992C13.3553 6.48711 13.3797 6.42336 13.3791 6.36055C13.3787 6.32961 13.3709 6.27148 13.3234 6.23086C13.2806 6.19398 13.1994 6.22367 13.0222 6.30898C13.0009 6.3193 12.9794 6.32961 12.9575 6.33992C12.9369 6.34961 12.9166 6.3593 12.8962 6.3693C12.6972 6.46523 12.4244 6.59648 12.1888 6.39461C12.0703 6.29336 12.0041 6.14773 12.0019 5.98492C12.0006 5.89305 12.0209 5.8018 12.0594 5.71711L11.8884 5.57086C11.8097 5.50367 11.8006 5.38523 11.8678 5.30648C11.9001 5.26871 11.9462 5.24532 11.9957 5.24145C12.0453 5.23759 12.0944 5.25356 12.1322 5.28586L12.3031 5.43211C12.3809 5.38117 12.4678 5.3468 12.5588 5.33367C12.7203 5.31086 12.8744 5.35367 12.9928 5.45492ZM15.9153 6.32242L13.4997 9.14742C13.4041 9.2593 13.2678 9.3168 13.1313 9.3168C13.0197 9.3168 12.9078 9.27867 12.8169 9.20086L9.70219 6.53773C9.59688 6.44773 9.53844 6.3268 9.53281 6.18867L9.52344 5.9518C9.31469 6.01586 9.07625 6.07898 8.825 6.12617C8.34906 7.33523 7.32562 9.28461 6.28375 11.2334C6.02938 11.7093 5.82844 12.0852 5.70813 12.3221C5.57688 12.5805 5.32531 12.7349 5.03531 12.7349C4.74531 12.7349 4.49406 12.5805 4.3625 12.3221C4.22281 12.0474 3.98688 11.6102 3.71344 11.1043C2.32469 8.53273 0.96875 5.95305 0.96875 5.12711C0.96875 2.88492 2.79313 1.06055 5.03531 1.06055C6.33563 1.06055 7.49563 1.6743 8.24031 2.62711C8.84562 2.54742 9.41938 2.59461 9.86812 2.76336C10.0891 2.84617 10.2772 2.95648 10.4316 3.09086L12.3759 2.86305C12.5138 2.8468 12.6419 2.88586 12.7472 2.97586L15.8619 5.63898C15.96 5.72305 16.0197 5.84023 16.0297 5.96961C16.04 6.09898 15.9991 6.2243 15.9153 6.32242ZM10.8634 4.15586C10.8232 4.1215 10.772 4.10266 10.7191 4.10273C10.6562 4.10273 10.5941 4.12898 10.55 4.18055C10.5113 4.22555 10.4928 4.28305 10.4972 4.34242C10.5019 4.40148 10.5291 4.45555 10.5744 4.49398C10.6197 4.53242 10.6769 4.55117 10.7362 4.5468C10.7654 4.54462 10.7938 4.53668 10.8198 4.52343C10.8458 4.51018 10.8689 4.49188 10.8878 4.46961C10.9266 4.42461 10.945 4.36711 10.9406 4.30773C10.9385 4.27857 10.9305 4.25013 10.9173 4.22406C10.904 4.19798 10.8857 4.1748 10.8634 4.15586ZM8.395 6.18836C8.27562 6.19992 8.15562 6.20648 8.03687 6.20648C7.69969 6.20648 7.37187 6.15367 7.09219 6.01586C6.7475 6.81055 5.95531 7.36805 5.03531 7.36805C3.79969 7.36805 2.79406 6.36273 2.79406 5.1268C2.79406 3.89086 3.79938 2.88555 5.03531 2.88555C6.27125 2.88555 7.27656 3.89086 7.27656 5.1268C7.27656 5.30898 7.25406 5.48586 7.21313 5.65555C7.52688 5.82805 7.98906 5.87336 8.5525 5.79211C8.6625 5.49523 8.72688 5.26367 8.72688 5.1268C8.72688 3.09117 7.07094 1.43523 5.03531 1.43523C2.99969 1.43555 1.34375 3.0918 1.34375 5.12711C1.34375 5.92742 3.1 9.17898 4.04344 10.9262C4.31781 11.4343 4.555 11.8734 4.69688 12.1524C4.76406 12.2843 4.88719 12.3599 5.03531 12.3599C5.18344 12.3599 5.30656 12.2843 5.37375 12.1524C5.49594 11.9121 5.69781 11.5346 5.95312 11.0568C6.61844 9.81117 7.81594 7.57086 8.395 6.18836ZM6.90125 5.12711C6.90125 4.09805 6.06406 3.26086 5.035 3.26086C4.00594 3.26086 3.16875 4.09805 3.16875 5.12711C3.16875 6.15617 4.00594 6.99336 5.035 6.99336C6.06406 6.99336 6.90125 6.15617 6.90125 5.12711ZM9.50813 5.56336L9.43312 3.65805C9.42344 3.41273 9.6025 3.19805 9.84344 3.16055C9.46531 2.98992 8.9775 2.93805 8.48594 2.97805C8.87594 3.60211 9.10156 4.33836 9.10156 5.1268C9.10156 5.26461 9.05687 5.46336 8.97531 5.7118C9.14625 5.67242 9.32438 5.62273 9.50813 5.56336ZM15.6559 5.99898C15.6537 5.96961 15.6403 5.94305 15.6181 5.9243L12.5034 3.26117C12.4822 3.24305 12.4613 3.23461 12.4356 3.23461C12.4306 3.23461 12.4253 3.23492 12.4197 3.23555L10.7209 3.43461C10.7778 3.53055 10.8228 3.63367 10.8562 3.74367C10.9478 3.76523 11.0334 3.80805 11.1072 3.87086C11.2284 3.97461 11.3022 4.1193 11.3144 4.27836C11.3269 4.43742 11.2766 4.5918 11.1728 4.71305C11.0691 4.8343 10.9244 4.90805 10.7653 4.92023C10.7494 4.92148 10.7338 4.92211 10.7178 4.92211C10.5756 4.92211 10.4397 4.87211 10.3306 4.77867C10.2094 4.67492 10.1356 4.53023 10.1234 4.37117C10.1171 4.29295 10.1263 4.21425 10.1506 4.13963C10.1749 4.06501 10.2138 3.99596 10.265 3.93648C10.3218 3.86992 10.3927 3.81677 10.4725 3.78086C10.4303 3.67255 10.3697 3.57234 10.2934 3.48461L9.90438 3.53023C9.87687 3.53319 9.85155 3.54655 9.83359 3.56759C9.81563 3.58862 9.80641 3.61574 9.80781 3.64336L9.9075 6.17367C9.90875 6.20711 9.92031 6.23086 9.94563 6.25242L13.0603 8.91555C13.0824 8.93434 13.1111 8.94361 13.14 8.94132C13.1689 8.93904 13.1958 8.92539 13.2147 8.90336L15.6303 6.07836C15.6491 6.05648 15.6581 6.02836 15.6559 5.99898ZM15.2303 6.03367C15.2341 6.08336 15.2181 6.13242 15.1859 6.17023L13.2359 8.45086C13.22 8.46958 13.2005 8.48496 13.1785 8.49611C13.1566 8.50727 13.1327 8.51398 13.1081 8.51586C13.1031 8.51617 13.0984 8.51648 13.0934 8.51648C13.0491 8.51648 13.0056 8.50055 12.9716 8.47148L10.5913 6.43617C10.5125 6.36898 10.5034 6.25055 10.5706 6.1718L12.5206 3.89117C12.5366 3.87245 12.5561 3.85707 12.578 3.84592C12.6 3.83476 12.6239 3.82805 12.6484 3.82617C12.6981 3.82211 12.7472 3.83836 12.785 3.87055L15.1653 5.90586C15.1841 5.92181 15.1995 5.94132 15.2106 5.96326C15.2218 5.98519 15.2285 6.00913 15.2303 6.03367ZM14.7791 6.06898L12.6838 4.27711L10.9775 6.27273L13.0728 8.06461L14.7791 6.06898ZM7.30781 10.8074C7.2225 10.749 7.10562 10.7705 7.04719 10.8559C6.98875 10.9412 7.01031 11.058 7.09562 11.1165C7.65469 11.4999 7.9625 12.0077 7.9625 12.5468C7.9625 13.6599 6.64937 14.5655 5.03531 14.5655C3.42125 14.5655 2.10812 13.6599 2.10812 12.5468C2.10812 12.0093 2.41438 11.5024 2.97031 11.1193C3.05563 11.0605 3.07719 10.9437 3.01844 10.8587C2.95969 10.7734 2.84281 10.7518 2.75781 10.8105C2.09719 11.2655 1.73312 11.8824 1.73312 12.5468C1.73312 13.1987 2.08531 13.8071 2.72438 14.2599C3.34406 14.699 4.16469 14.9405 5.03531 14.9405C5.90594 14.9405 6.72656 14.6987 7.34625 14.2599C7.98563 13.8071 8.3375 13.1987 8.3375 12.5468C8.3375 11.8809 7.97188 11.263 7.30781 10.8074ZM3.49688 12.0721C3.53575 12.0411 3.56074 11.996 3.56636 11.9466C3.57199 11.8972 3.55779 11.8476 3.52688 11.8087C3.46219 11.7277 3.34437 11.7143 3.26344 11.7787C2.98688 11.999 2.84063 12.2646 2.84063 12.5471C2.84063 13.2684 3.80469 13.8334 5.03531 13.8334C6.26594 13.8334 7.23 13.2684 7.23 12.5471C7.23 12.2643 7.08344 11.998 6.80625 11.7777C6.725 11.7134 6.60719 11.7268 6.54281 11.8077C6.47844 11.8887 6.49188 12.0068 6.57281 12.0712C6.70156 12.1734 6.855 12.339 6.855 12.5468C6.855 13.0409 6.02156 13.458 5.03531 13.458C4.04906 13.458 3.21563 13.0409 3.21563 12.5468C3.21531 12.3396 3.36844 12.1743 3.49688 12.0721Z"/>
</mask>
<path d="M12.9928 5.45492C13.0716 5.52211 13.0806 5.64055 13.0134 5.7193C12.9462 5.79805 12.8278 5.80742 12.7491 5.73992C12.7016 5.6993 12.6431 5.70086 12.6125 5.70523C12.5503 5.7143 12.4913 5.74836 12.4459 5.80117C12.4006 5.85398 12.3763 5.91773 12.3769 5.98055C12.3772 6.01148 12.385 6.06961 12.4325 6.10992C12.4753 6.1468 12.5566 6.11711 12.7338 6.0318C12.755 6.02148 12.7766 6.01117 12.7984 6.00086C12.8191 5.99117 12.8397 5.98148 12.8597 5.97148C13.0588 5.87555 13.3316 5.7443 13.5672 5.94617C13.6856 6.04742 13.7519 6.19305 13.7541 6.35586C13.7553 6.44773 13.735 6.53898 13.6966 6.62367L13.8675 6.76992C13.9462 6.83711 13.9553 6.95555 13.8881 7.0343C13.8705 7.05491 13.8487 7.07145 13.8241 7.08278C13.7995 7.09411 13.7727 7.09996 13.7456 7.09992C13.7025 7.09992 13.6591 7.08523 13.6237 7.05492L13.4528 6.90867C13.3484 6.97711 13.2294 7.01242 13.1125 7.01242C12.9862 7.01242 12.8625 6.97117 12.7631 6.88617C12.6844 6.81898 12.6753 6.70055 12.7425 6.6218C12.8097 6.54305 12.9281 6.53367 13.0069 6.60117C13.0853 6.66836 13.2241 6.64023 13.31 6.53992C13.3553 6.48711 13.3797 6.42336 13.3791 6.36055C13.3787 6.32961 13.3709 6.27148 13.3234 6.23086C13.2806 6.19398 13.1994 6.22367 13.0222 6.30898C13.0009 6.3193 12.9794 6.32961 12.9575 6.33992C12.9369 6.34961 12.9166 6.3593 12.8962 6.3693C12.6972 6.46523 12.4244 6.59648 12.1888 6.39461C12.0703 6.29336 12.0041 6.14773 12.0019 5.98492C12.0006 5.89305 12.0209 5.8018 12.0594 5.71711L11.8884 5.57086C11.8097 5.50367 11.8006 5.38523 11.8678 5.30648C11.9001 5.26871 11.9462 5.24532 11.9957 5.24145C12.0453 5.23759 12.0944 5.25356 12.1322 5.28586L12.3031 5.43211C12.3809 5.38117 12.4678 5.3468 12.5588 5.33367C12.7203 5.31086 12.8744 5.35367 12.9928 5.45492ZM15.9153 6.32242L13.4997 9.14742C13.4041 9.2593 13.2678 9.3168 13.1313 9.3168C13.0197 9.3168 12.9078 9.27867 12.8169 9.20086L9.70219 6.53773C9.59688 6.44773 9.53844 6.3268 9.53281 6.18867L9.52344 5.9518C9.31469 6.01586 9.07625 6.07898 8.825 6.12617C8.34906 7.33523 7.32562 9.28461 6.28375 11.2334C6.02938 11.7093 5.82844 12.0852 5.70813 12.3221C5.57688 12.5805 5.32531 12.7349 5.03531 12.7349C4.74531 12.7349 4.49406 12.5805 4.3625 12.3221C4.22281 12.0474 3.98688 11.6102 3.71344 11.1043C2.32469 8.53273 0.96875 5.95305 0.96875 5.12711C0.96875 2.88492 2.79313 1.06055 5.03531 1.06055C6.33563 1.06055 7.49563 1.6743 8.24031 2.62711C8.84562 2.54742 9.41938 2.59461 9.86812 2.76336C10.0891 2.84617 10.2772 2.95648 10.4316 3.09086L12.3759 2.86305C12.5138 2.8468 12.6419 2.88586 12.7472 2.97586L15.8619 5.63898C15.96 5.72305 16.0197 5.84023 16.0297 5.96961C16.04 6.09898 15.9991 6.2243 15.9153 6.32242ZM10.8634 4.15586C10.8232 4.1215 10.772 4.10266 10.7191 4.10273C10.6562 4.10273 10.5941 4.12898 10.55 4.18055C10.5113 4.22555 10.4928 4.28305 10.4972 4.34242C10.5019 4.40148 10.5291 4.45555 10.5744 4.49398C10.6197 4.53242 10.6769 4.55117 10.7362 4.5468C10.7654 4.54462 10.7938 4.53668 10.8198 4.52343C10.8458 4.51018 10.8689 4.49188 10.8878 4.46961C10.9266 4.42461 10.945 4.36711 10.9406 4.30773C10.9385 4.27857 10.9305 4.25013 10.9173 4.22406C10.904 4.19798 10.8857 4.1748 10.8634 4.15586ZM8.395 6.18836C8.27562 6.19992 8.15562 6.20648 8.03687 6.20648C7.69969 6.20648 7.37187 6.15367 7.09219 6.01586C6.7475 6.81055 5.95531 7.36805 5.03531 7.36805C3.79969 7.36805 2.79406 6.36273 2.79406 5.1268C2.79406 3.89086 3.79938 2.88555 5.03531 2.88555C6.27125 2.88555 7.27656 3.89086 7.27656 5.1268C7.27656 5.30898 7.25406 5.48586 7.21313 5.65555C7.52688 5.82805 7.98906 5.87336 8.5525 5.79211C8.6625 5.49523 8.72688 5.26367 8.72688 5.1268C8.72688 3.09117 7.07094 1.43523 5.03531 1.43523C2.99969 1.43555 1.34375 3.0918 1.34375 5.12711C1.34375 5.92742 3.1 9.17898 4.04344 10.9262C4.31781 11.4343 4.555 11.8734 4.69688 12.1524C4.76406 12.2843 4.88719 12.3599 5.03531 12.3599C5.18344 12.3599 5.30656 12.2843 5.37375 12.1524C5.49594 11.9121 5.69781 11.5346 5.95312 11.0568C6.61844 9.81117 7.81594 7.57086 8.395 6.18836ZM6.90125 5.12711C6.90125 4.09805 6.06406 3.26086 5.035 3.26086C4.00594 3.26086 3.16875 4.09805 3.16875 5.12711C3.16875 6.15617 4.00594 6.99336 5.035 6.99336C6.06406 6.99336 6.90125 6.15617 6.90125 5.12711ZM9.50813 5.56336L9.43312 3.65805C9.42344 3.41273 9.6025 3.19805 9.84344 3.16055C9.46531 2.98992 8.9775 2.93805 8.48594 2.97805C8.87594 3.60211 9.10156 4.33836 9.10156 5.1268C9.10156 5.26461 9.05687 5.46336 8.97531 5.7118C9.14625 5.67242 9.32438 5.62273 9.50813 5.56336ZM15.6559 5.99898C15.6537 5.96961 15.6403 5.94305 15.6181 5.9243L12.5034 3.26117C12.4822 3.24305 12.4613 3.23461 12.4356 3.23461C12.4306 3.23461 12.4253 3.23492 12.4197 3.23555L10.7209 3.43461C10.7778 3.53055 10.8228 3.63367 10.8562 3.74367C10.9478 3.76523 11.0334 3.80805 11.1072 3.87086C11.2284 3.97461 11.3022 4.1193 11.3144 4.27836C11.3269 4.43742 11.2766 4.5918 11.1728 4.71305C11.0691 4.8343 10.9244 4.90805 10.7653 4.92023C10.7494 4.92148 10.7338 4.92211 10.7178 4.92211C10.5756 4.92211 10.4397 4.87211 10.3306 4.77867C10.2094 4.67492 10.1356 4.53023 10.1234 4.37117C10.1171 4.29295 10.1263 4.21425 10.1506 4.13963C10.1749 4.06501 10.2138 3.99596 10.265 3.93648C10.3218 3.86992 10.3927 3.81677 10.4725 3.78086C10.4303 3.67255 10.3697 3.57234 10.2934 3.48461L9.90438 3.53023C9.87687 3.53319 9.85155 3.54655 9.83359 3.56759C9.81563 3.58862 9.80641 3.61574 9.80781 3.64336L9.9075 6.17367C9.90875 6.20711 9.92031 6.23086 9.94563 6.25242L13.0603 8.91555C13.0824 8.93434 13.1111 8.94361 13.14 8.94132C13.1689 8.93904 13.1958 8.92539 13.2147 8.90336L15.6303 6.07836C15.6491 6.05648 15.6581 6.02836 15.6559 5.99898ZM15.2303 6.03367C15.2341 6.08336 15.2181 6.13242 15.1859 6.17023L13.2359 8.45086C13.22 8.46958 13.2005 8.48496 13.1785 8.49611C13.1566 8.50727 13.1327 8.51398 13.1081 8.51586C13.1031 8.51617 13.0984 8.51648 13.0934 8.51648C13.0491 8.51648 13.0056 8.50055 12.9716 8.47148L10.5913 6.43617C10.5125 6.36898 10.5034 6.25055 10.5706 6.1718L12.5206 3.89117C12.5366 3.87245 12.5561 3.85707 12.578 3.84592C12.6 3.83476 12.6239 3.82805 12.6484 3.82617C12.6981 3.82211 12.7472 3.83836 12.785 3.87055L15.1653 5.90586C15.1841 5.92181 15.1995 5.94132 15.2106 5.96326C15.2218 5.98519 15.2285 6.00913 15.2303 6.03367ZM14.7791 6.06898L12.6838 4.27711L10.9775 6.27273L13.0728 8.06461L14.7791 6.06898ZM7.30781 10.8074C7.2225 10.749 7.10562 10.7705 7.04719 10.8559C6.98875 10.9412 7.01031 11.058 7.09562 11.1165C7.65469 11.4999 7.9625 12.0077 7.9625 12.5468C7.9625 13.6599 6.64937 14.5655 5.03531 14.5655C3.42125 14.5655 2.10812 13.6599 2.10812 12.5468C2.10812 12.0093 2.41438 11.5024 2.97031 11.1193C3.05563 11.0605 3.07719 10.9437 3.01844 10.8587C2.95969 10.7734 2.84281 10.7518 2.75781 10.8105C2.09719 11.2655 1.73312 11.8824 1.73312 12.5468C1.73312 13.1987 2.08531 13.8071 2.72438 14.2599C3.34406 14.699 4.16469 14.9405 5.03531 14.9405C5.90594 14.9405 6.72656 14.6987 7.34625 14.2599C7.98563 13.8071 8.3375 13.1987 8.3375 12.5468C8.3375 11.8809 7.97188 11.263 7.30781 10.8074ZM3.49688 12.0721C3.53575 12.0411 3.56074 11.996 3.56636 11.9466C3.57199 11.8972 3.55779 11.8476 3.52688 11.8087C3.46219 11.7277 3.34437 11.7143 3.26344 11.7787C2.98688 11.999 2.84063 12.2646 2.84063 12.5471C2.84063 13.2684 3.80469 13.8334 5.03531 13.8334C6.26594 13.8334 7.23 13.2684 7.23 12.5471C7.23 12.2643 7.08344 11.998 6.80625 11.7777C6.725 11.7134 6.60719 11.7268 6.54281 11.8077C6.47844 11.8887 6.49188 12.0068 6.57281 12.0712C6.70156 12.1734 6.855 12.339 6.855 12.5468C6.855 13.0409 6.02156 13.458 5.03531 13.458C4.04906 13.458 3.21563 13.0409 3.21563 12.5468C3.21531 12.3396 3.36844 12.1743 3.49688 12.0721Z" fill="#FFBA00"/>
<path d="M12.9928 5.45492C13.0716 5.52211 13.0806 5.64055 13.0134 5.7193C12.9462 5.79805 12.8278 5.80742 12.7491 5.73992C12.7016 5.6993 12.6431 5.70086 12.6125 5.70523C12.5503 5.7143 12.4913 5.74836 12.4459 5.80117C12.4006 5.85398 12.3763 5.91773 12.3769 5.98055C12.3772 6.01148 12.385 6.06961 12.4325 6.10992C12.4753 6.1468 12.5566 6.11711 12.7338 6.0318C12.755 6.02148 12.7766 6.01117 12.7984 6.00086C12.8191 5.99117 12.8397 5.98148 12.8597 5.97148C13.0588 5.87555 13.3316 5.7443 13.5672 5.94617C13.6856 6.04742 13.7519 6.19305 13.7541 6.35586C13.7553 6.44773 13.735 6.53898 13.6966 6.62367L13.8675 6.76992C13.9462 6.83711 13.9553 6.95555 13.8881 7.0343C13.8705 7.05491 13.8487 7.07145 13.8241 7.08278C13.7995 7.09411 13.7727 7.09996 13.7456 7.09992C13.7025 7.09992 13.6591 7.08523 13.6237 7.05492L13.4528 6.90867C13.3484 6.97711 13.2294 7.01242 13.1125 7.01242C12.9862 7.01242 12.8625 6.97117 12.7631 6.88617C12.6844 6.81898 12.6753 6.70055 12.7425 6.6218C12.8097 6.54305 12.9281 6.53367 13.0069 6.60117C13.0853 6.66836 13.2241 6.64023 13.31 6.53992C13.3553 6.48711 13.3797 6.42336 13.3791 6.36055C13.3787 6.32961 13.3709 6.27148 13.3234 6.23086C13.2806 6.19398 13.1994 6.22367 13.0222 6.30898C13.0009 6.3193 12.9794 6.32961 12.9575 6.33992C12.9369 6.34961 12.9166 6.3593 12.8962 6.3693C12.6972 6.46523 12.4244 6.59648 12.1888 6.39461C12.0703 6.29336 12.0041 6.14773 12.0019 5.98492C12.0006 5.89305 12.0209 5.8018 12.0594 5.71711L11.8884 5.57086C11.8097 5.50367 11.8006 5.38523 11.8678 5.30648C11.9001 5.26871 11.9462 5.24532 11.9957 5.24145C12.0453 5.23759 12.0944 5.25356 12.1322 5.28586L12.3031 5.43211C12.3809 5.38117 12.4678 5.3468 12.5588 5.33367C12.7203 5.31086 12.8744 5.35367 12.9928 5.45492ZM15.9153 6.32242L13.4997 9.14742C13.4041 9.2593 13.2678 9.3168 13.1313 9.3168C13.0197 9.3168 12.9078 9.27867 12.8169 9.20086L9.70219 6.53773C9.59688 6.44773 9.53844 6.3268 9.53281 6.18867L9.52344 5.9518C9.31469 6.01586 9.07625 6.07898 8.825 6.12617C8.34906 7.33523 7.32562 9.28461 6.28375 11.2334C6.02938 11.7093 5.82844 12.0852 5.70813 12.3221C5.57688 12.5805 5.32531 12.7349 5.03531 12.7349C4.74531 12.7349 4.49406 12.5805 4.3625 12.3221C4.22281 12.0474 3.98688 11.6102 3.71344 11.1043C2.32469 8.53273 0.96875 5.95305 0.96875 5.12711C0.96875 2.88492 2.79313 1.06055 5.03531 1.06055C6.33563 1.06055 7.49563 1.6743 8.24031 2.62711C8.84562 2.54742 9.41938 2.59461 9.86812 2.76336C10.0891 2.84617 10.2772 2.95648 10.4316 3.09086L12.3759 2.86305C12.5138 2.8468 12.6419 2.88586 12.7472 2.97586L15.8619 5.63898C15.96 5.72305 16.0197 5.84023 16.0297 5.96961C16.04 6.09898 15.9991 6.2243 15.9153 6.32242ZM10.8634 4.15586C10.8232 4.1215 10.772 4.10266 10.7191 4.10273C10.6562 4.10273 10.5941 4.12898 10.55 4.18055C10.5113 4.22555 10.4928 4.28305 10.4972 4.34242C10.5019 4.40148 10.5291 4.45555 10.5744 4.49398C10.6197 4.53242 10.6769 4.55117 10.7362 4.5468C10.7654 4.54462 10.7938 4.53668 10.8198 4.52343C10.8458 4.51018 10.8689 4.49188 10.8878 4.46961C10.9266 4.42461 10.945 4.36711 10.9406 4.30773C10.9385 4.27857 10.9305 4.25013 10.9173 4.22406C10.904 4.19798 10.8857 4.1748 10.8634 4.15586ZM8.395 6.18836C8.27562 6.19992 8.15562 6.20648 8.03687 6.20648C7.69969 6.20648 7.37187 6.15367 7.09219 6.01586C6.7475 6.81055 5.95531 7.36805 5.03531 7.36805C3.79969 7.36805 2.79406 6.36273 2.79406 5.1268C2.79406 3.89086 3.79938 2.88555 5.03531 2.88555C6.27125 2.88555 7.27656 3.89086 7.27656 5.1268C7.27656 5.30898 7.25406 5.48586 7.21313 5.65555C7.52688 5.82805 7.98906 5.87336 8.5525 5.79211C8.6625 5.49523 8.72688 5.26367 8.72688 5.1268C8.72688 3.09117 7.07094 1.43523 5.03531 1.43523C2.99969 1.43555 1.34375 3.0918 1.34375 5.12711C1.34375 5.92742 3.1 9.17898 4.04344 10.9262C4.31781 11.4343 4.555 11.8734 4.69688 12.1524C4.76406 12.2843 4.88719 12.3599 5.03531 12.3599C5.18344 12.3599 5.30656 12.2843 5.37375 12.1524C5.49594 11.9121 5.69781 11.5346 5.95312 11.0568C6.61844 9.81117 7.81594 7.57086 8.395 6.18836ZM6.90125 5.12711C6.90125 4.09805 6.06406 3.26086 5.035 3.26086C4.00594 3.26086 3.16875 4.09805 3.16875 5.12711C3.16875 6.15617 4.00594 6.99336 5.035 6.99336C6.06406 6.99336 6.90125 6.15617 6.90125 5.12711ZM9.50813 5.56336L9.43312 3.65805C9.42344 3.41273 9.6025 3.19805 9.84344 3.16055C9.46531 2.98992 8.9775 2.93805 8.48594 2.97805C8.87594 3.60211 9.10156 4.33836 9.10156 5.1268C9.10156 5.26461 9.05687 5.46336 8.97531 5.7118C9.14625 5.67242 9.32438 5.62273 9.50813 5.56336ZM15.6559 5.99898C15.6537 5.96961 15.6403 5.94305 15.6181 5.9243L12.5034 3.26117C12.4822 3.24305 12.4613 3.23461 12.4356 3.23461C12.4306 3.23461 12.4253 3.23492 12.4197 3.23555L10.7209 3.43461C10.7778 3.53055 10.8228 3.63367 10.8562 3.74367C10.9478 3.76523 11.0334 3.80805 11.1072 3.87086C11.2284 3.97461 11.3022 4.1193 11.3144 4.27836C11.3269 4.43742 11.2766 4.5918 11.1728 4.71305C11.0691 4.8343 10.9244 4.90805 10.7653 4.92023C10.7494 4.92148 10.7338 4.92211 10.7178 4.92211C10.5756 4.92211 10.4397 4.87211 10.3306 4.77867C10.2094 4.67492 10.1356 4.53023 10.1234 4.37117C10.1171 4.29295 10.1263 4.21425 10.1506 4.13963C10.1749 4.06501 10.2138 3.99596 10.265 3.93648C10.3218 3.86992 10.3927 3.81677 10.4725 3.78086C10.4303 3.67255 10.3697 3.57234 10.2934 3.48461L9.90438 3.53023C9.87687 3.53319 9.85155 3.54655 9.83359 3.56759C9.81563 3.58862 9.80641 3.61574 9.80781 3.64336L9.9075 6.17367C9.90875 6.20711 9.92031 6.23086 9.94563 6.25242L13.0603 8.91555C13.0824 8.93434 13.1111 8.94361 13.14 8.94132C13.1689 8.93904 13.1958 8.92539 13.2147 8.90336L15.6303 6.07836C15.6491 6.05648 15.6581 6.02836 15.6559 5.99898ZM15.2303 6.03367C15.2341 6.08336 15.2181 6.13242 15.1859 6.17023L13.2359 8.45086C13.22 8.46958 13.2005 8.48496 13.1785 8.49611C13.1566 8.50727 13.1327 8.51398 13.1081 8.51586C13.1031 8.51617 13.0984 8.51648 13.0934 8.51648C13.0491 8.51648 13.0056 8.50055 12.9716 8.47148L10.5913 6.43617C10.5125 6.36898 10.5034 6.25055 10.5706 6.1718L12.5206 3.89117C12.5366 3.87245 12.5561 3.85707 12.578 3.84592C12.6 3.83476 12.6239 3.82805 12.6484 3.82617C12.6981 3.82211 12.7472 3.83836 12.785 3.87055L15.1653 5.90586C15.1841 5.92181 15.1995 5.94132 15.2106 5.96326C15.2218 5.98519 15.2285 6.00913 15.2303 6.03367ZM14.7791 6.06898L12.6838 4.27711L10.9775 6.27273L13.0728 8.06461L14.7791 6.06898ZM7.30781 10.8074C7.2225 10.749 7.10562 10.7705 7.04719 10.8559C6.98875 10.9412 7.01031 11.058 7.09562 11.1165C7.65469 11.4999 7.9625 12.0077 7.9625 12.5468C7.9625 13.6599 6.64937 14.5655 5.03531 14.5655C3.42125 14.5655 2.10812 13.6599 2.10812 12.5468C2.10812 12.0093 2.41438 11.5024 2.97031 11.1193C3.05563 11.0605 3.07719 10.9437 3.01844 10.8587C2.95969 10.7734 2.84281 10.7518 2.75781 10.8105C2.09719 11.2655 1.73312 11.8824 1.73312 12.5468C1.73312 13.1987 2.08531 13.8071 2.72438 14.2599C3.34406 14.699 4.16469 14.9405 5.03531 14.9405C5.90594 14.9405 6.72656 14.6987 7.34625 14.2599C7.98563 13.8071 8.3375 13.1987 8.3375 12.5468C8.3375 11.8809 7.97188 11.263 7.30781 10.8074ZM3.49688 12.0721C3.53575 12.0411 3.56074 11.996 3.56636 11.9466C3.57199 11.8972 3.55779 11.8476 3.52688 11.8087C3.46219 11.7277 3.34437 11.7143 3.26344 11.7787C2.98688 11.999 2.84063 12.2646 2.84063 12.5471C2.84063 13.2684 3.80469 13.8334 5.03531 13.8334C6.26594 13.8334 7.23 13.2684 7.23 12.5471C7.23 12.2643 7.08344 11.998 6.80625 11.7777C6.725 11.7134 6.60719 11.7268 6.54281 11.8077C6.47844 11.8887 6.49188 12.0068 6.57281 12.0712C6.70156 12.1734 6.855 12.339 6.855 12.5468C6.855 13.0409 6.02156 13.458 5.03531 13.458C4.04906 13.458 3.21563 13.0409 3.21563 12.5468C3.21531 12.3396 3.36844 12.1743 3.49688 12.0721Z" stroke="#FFBA00" stroke-width="0.2" mask="url(#path-1-outside-1_529_402)"/>
</g>
<defs>
<clipPath id="clip0_529_402">
<rect width="16" height="16" fill="white" transform="translate(0.5)"/>
</clipPath>
</defs>
</svg>
